<?xml version="1.0" encoding="utf-8" ?><svg xmlns="http://www.w3.org/2000/svg" xmlns:xlink="http://www.w3.org/1999/xlink" width="160" height="196" viewBox="0 0 160 196"><defs><linearGradient id="gradient_0" gradientUnits="userSpaceOnUse" x1="113.7517" y1="7.7424517" x2="52.235233" y2="130.53264"><stop offset="0" stop-color="#FA5453"/><stop offset="1" stop-color="#FE8B89"/></linearGradient></defs><path fill="url(#gradient_0)" d="M19.267 46.0158C10.8006 39.2214 8.12211 38.7268 15.7366 29.5897C21.8148 22.2959 27.5073 17.1415 35.8779 12.3939C38.5372 10.8856 41.494 9.92658 44.2271 8.57401C56.4643 3.23161 69.6366 0.368035 83.01 1.50878C85.0086 1.67926 87.7576 1.25008 89.787 1.49966C94.4992 2.07917 100.508 2.93716 104.909 4.65103C105.646 6.22667 110.379 7.98326 112.259 8.86425L112.761 8.81026L113.612 7.65164L113.863 7.78192C115.377 8.41517 121.974 10.9799 122.928 11.8482L123.109 11.9213C123.399 15.3532 125.394 14.9395 127.796 15.8754C130.564 16.9535 127.217 18.2795 132.986 18.3725C134.904 19.5333 134.558 19.8785 135.879 21.3311C136.881 22.4326 138.682 23.704 139.669 24.7716L145.602 31.208C146.579 32.2804 147.505 33.5744 148.607 34.4729C148.825 36.3981 148.918 37.309 148.841 39.267C148.591 39.3838 147.545 39.9241 147.451 40.0714C146.699 41.2469 141.415 45.8851 141.145 46.6027C140.49 49.1821 141.037 52.0565 140.889 54.7391C140.699 58.1775 137.448 61.1406 139.233 64.4127C140.245 66.2671 142.244 66.2973 143.966 67.4946C146.893 69.5305 149.849 71.8628 152.4 74.3548C152.926 74.8707 153.6 76.4284 153.864 77.0779C157.568 79.1003 156.826 84.4928 156.912 88.1349C157.06 94.4173 156.508 100.716 153.232 106.226C152.164 108.059 150.814 110.728 148.587 111.395C148.441 111.439 148.293 111.478 148.145 111.512C147.375 110.591 147.339 106.943 146.858 106.228C145.2 103.76 144.225 100.016 142.837 97.6541C141.529 95.4292 133.184 84.6345 130.432 85.5867C130.445 86.4436 131.104 87.1324 131.54 88.0015C134.647 94.1871 137.301 98.334 131.502 103.873C128.783 106.469 126.527 108.565 122.337 108.576C117.241 108.59 111.965 105.04 107.583 102.949C105.589 101.996 101.778 100.968 99.6279 100.424C97.9447 98.1843 102.013 90.7289 98.8677 87.622C97.2542 86.0283 96.1818 85.6409 94.3769 84.3684C92.4449 82.7126 92.9656 80.9086 91.165 78.9738C90.1448 77.8776 89.3548 78.4904 88.9268 77.2988C88.2585 75.4383 88.1407 73.5129 87.4602 71.6281L88.3674 68.7223C87.573 68.5999 86.5099 68.4039 85.7344 68.3252C85.8293 71.7859 85.1851 81.9396 87.3905 83.8682C89.8305 86.0019 93.3306 87.7796 95.6285 90.6128C96.0278 92.6571 96.0422 94.7308 95.9866 96.8085C94.1638 97.8151 92.4721 98.3418 90.5707 99.1364C86.9938 100.631 85.6493 104.722 82.3187 106.678C80.3863 106.805 79.5381 106.84 77.5814 106.673L77.5084 106.61C75.3884 104.739 74.1817 101.957 72.0352 100.24C70.2795 98.8367 67.5451 98.2237 65.8074 97.2559C65.0996 95.9796 64.5744 95.0337 64.0151 93.6678C64.2157 93.1101 65.1187 90.6025 65.3785 90.2691C67.9442 86.9779 71.3167 84.7572 74.2565 81.5351C74.4869 80.1377 75.8136 75.4263 75.3485 74.6924C74.2522 72.9623 74.6532 69.8567 74.1262 68.6077L73.8552 68.3655C73.208 68.4955 73.4379 68.3603 73.002 68.8977C72.6069 72.6827 72.3735 77.0111 69.9374 80.0823C67.7958 82.7823 63.9556 86.846 60.7694 88.1145C60.7491 91.2638 60.7926 93.6148 61.0315 96.7386C61.55 97.4474 62.4308 98.5139 62.6195 99.3073C60.9338 100.683 56.8884 101.375 54.76 102.314C46.5751 105.928 39.1635 112.469 30.5251 105.628C30.7911 105.26 31.2347 105.15 31.6649 104.99C31.2282 104.132 28.4501 101.134 27.5911 101.102L27.6242 101.808L27.0889 101.988C23.2099 97.3177 27.7328 91.8272 29.2079 86.9892C29.3925 86.3837 29.5061 86.2775 29.2216 85.7556C26.8167 86.0825 20.2594 94.112 18.579 96.3362C15.9542 99.8105 15.0371 105.952 14.0753 110.064C14.0612 110.124 12.1981 112.546 11.7853 113.403C9.88 110.283 6.76806 104.478 5.19889 101.341C2.73245 95.3138 3.01746 88.337 4.07831 82.0891C4.95583 76.9209 5.08307 77.0587 8.66979 73.5127C12.634 69.5935 15.5639 67.342 20.6891 65.2313C24.8121 60.7367 19.9355 58.0458 20.3565 56.8033C21.6804 52.8968 19.3518 49.5611 19.267 46.0158ZM54.5805 47.7806C58.8079 51.3971 64.4316 56.7451 69.7566 58.3567C70.6498 58.627 71.8192 57.0255 72.4311 56.5407C73.9026 55.375 75.5654 49.5137 74.0644 48.2699C72.6573 47.104 68.5456 45.6617 66.8046 44.5942C61.4128 41.3323 56.3666 37.9249 50.4544 35.5856C49.5624 35.2327 49.4509 34.4889 48.369 34.5131C45.3888 35.8946 43.5717 35.4603 40.6497 36.0808C37.4653 36.7569 22.8058 43.1797 24.7936 47.4813C28.0424 48.4884 37.906 37.7368 43.9769 40.5164C48.5288 42.6005 50.8047 44.6935 54.5805 47.7806ZM91.5335 58.5648C97.7535 54.1688 100.16 52.5177 106.006 47.4269C109.283 44.7436 113.479 40.8274 117.529 39.8605C121.837 38.8322 133.366 48.7737 136.19 47.0375C136.312 46.4157 135.99 45.912 135.66 45.4079C132.449 40.5042 119.422 34.5598 113.622 35.6024C105.12 36.2595 101.611 39.7885 94.8262 44.0478C87.4987 48.648 82.8149 47.2556 88.2246 57.0329C89.269 57.5948 90.3978 58.2585 91.5335 58.5648ZM130.066 57.9715C130.074 58.6277 133.22 65.0163 133.867 65.8344C133.869 67.0946 133.729 70.3384 134.006 71.2559L134.445 71.5666C134.724 71.4664 134.986 71.4154 135.142 71.1752C135.504 68.6327 135.554 67.9592 136.509 65.5642C135.248 62.3287 133.929 58.7183 130.066 57.9715ZM30.6448 56.734C29.0028 57.4727 25.5384 60.4766 24.9507 62.1762C24.1597 64.4638 23.8597 71.5062 26.2322 72.9299C27.1525 73.1204 27.2113 73.3029 27.9097 72.9153C28.4505 71.143 27.3764 67.355 27.9602 64.89C28.497 62.6233 31.0692 58.7484 31.2947 57.0332C30.9255 56.7092 31.0987 56.7786 30.6448 56.734ZM109.876 74.316C116.404 74.0917 120.697 73.884 126.525 77.2417C127.355 77.7201 129.009 78.9966 129.755 78.378C129.264 75.3945 124.849 74.9747 123.239 72.959C122.051 71.4707 122.101 68.4266 121.129 66.7443C119.759 64.4136 112.755 60.66 110.128 60.8514C106.649 61.0402 95.3816 65.712 95.7541 70.5526C96.0097 73.8744 99.5143 72.7959 99.4196 77.5957C98.4885 78.54 97.2151 79.7021 96.6342 80.8553L96.6561 81.4089L97.0542 81.6621C102.501 78.8763 99.8343 75.6512 109.876 74.316ZM48.8939 60.8298C46.808 60.9094 42.4945 63.7726 40.9266 65.3904C38.2425 68.16 38.1936 70.8016 36.8366 73.4051C34.7852 74.6101 32.1548 75.7904 31.3962 78.1394L31.5945 78.4641C33.3879 78.4746 36.9783 75.5537 38.4211 74.9648C41.6191 73.6597 50.9096 74.0251 53.9306 75.2462C55.7259 76.7712 57.3109 77.4411 59.3086 78.6123C60.4786 79.2983 62.2986 81.654 63.6853 81.7043C63.8621 80.2242 60.3105 76.6851 60.4725 75.9064C61.1826 72.4942 67.2896 72.5715 64.006 68.3587C63.0515 67.1341 62.5885 65.9458 61.0742 64.9143C60.7376 63.4341 59.6152 62.0011 57.4272 62.0202C54.4639 62.0461 52.0502 60.6919 48.8939 60.8298Z"/><path fill="#FB8785" d="M113.863 7.78192C115.377 8.41517 121.974 10.9799 122.928 11.8482C122.041 11.9582 117.64 11.2497 116.901 10.3469C116.741 10.1518 115.572 9.19605 115.468 9.14882C115.114 9.62697 115.064 9.68852 114.516 9.93098C113.736 9.46606 114.244 9.28399 113.863 7.78192Z"/><path fill="#FB8785" d="M23.0058 127.598C26.5524 127.975 30.1726 128.934 34.1814 129.206C38.8822 129.524 43.1548 128.98 47.7454 129.361C49.3643 129.495 49.5705 131.932 49.9738 132.293C52.5492 134.602 54.8915 137.543 57.3506 139.95C57.6702 140.263 59.5137 140.828 59.9438 141.082C64.4117 143.72 70.0274 146.256 75.0119 147.649C76.3476 148.022 81.4356 148.115 82.7517 147.711C87.2594 146.325 93.9134 144.481 98.0437 142.348C100.135 141.268 104.248 137.69 106.16 136.105C108.317 134.315 110.256 130.916 112.708 129.257C116.871 129.103 121.148 129.395 125.348 129.219C128.9 129.071 134.382 127.673 137.609 128.831C137.366 130.853 135.211 134.01 135.037 135.768C133.987 146.365 132.521 155.833 126.15 164.888C121.438 171.588 114.577 176.019 108.985 181.722C107.023 183.724 103.941 189.745 101.974 192.089C101.072 193.165 98.7466 194.315 97.4358 194.996C96.9383 194.913 89.5757 194.638 89.0943 194.677C86.2217 194.913 82.3467 194.108 79.8262 194.251C75.9425 194.471 72.0529 194.926 67.9903 194.761C65.6754 194.668 62.0034 194.475 60.0629 193.012C56.4358 190.277 54.7906 184.969 51.6114 181.465C49.2427 178.855 47.3086 177.887 44.7347 175.738C42.4685 173.846 40.2532 171.285 38.0565 169.241C31.864 163.477 28.5962 153.623 26.7052 145.593C26.1867 143.391 26.1547 139.327 25.5649 136.766C25.0747 134.637 22.9952 129.305 23.0058 127.598Z"/><path fill="#FB8785" fill-opacity="0.97647059" d="M63.7716 131.021C63.0903 130.204 62.6361 129.737 62.5116 128.778C63.9654 126.716 69.2635 129.462 70.9054 130.398C75.0367 129.969 88.1066 131.157 91.2099 130.077C92.1494 131.441 92.0557 130.662 93.0614 131.478C85.8086 132.572 80.685 134.869 73.0752 132.642C70.401 131.86 66.719 131.668 63.7716 131.021Z"/><path fill="#FB8785" fill-opacity="0.98823529" d="M154.382 45.2841C155.57 45.3665 156.222 45.7673 156.686 46.9115C159.159 53.0204 149.922 52.7345 146.303 52.7278C145.199 52.6262 144.682 52.688 144.023 51.7889L144.157 51.1316C145.633 49.3673 152.181 45.9548 154.382 45.2841Z"/><path fill="#FB8785" d="M5.00136 60.3449C7.31314 60.2739 13.7075 59.8267 15.3664 60.9411C15.8236 62.3425 13.9095 62.044 13.6159 62.868C13.2132 63.9984 12.1211 64.1597 10.933 64.5307C8.49212 65.2649 2.77986 66.9776 1.17144 64.4536C1.02676 62.8478 2.09042 62.1086 3.12631 61.0716C3.74041 60.4568 4.16517 60.5207 5.00136 60.3449Z"/><path fill="#FB8785" fill-opacity="0.98823529" d="M5.55807 46.1296C5.95213 46.0581 7.38044 45.8246 7.65543 45.9774C9.71047 47.1197 16.2471 49.4322 15.4351 52.2988C14.8659 52.8279 14.1094 52.7501 13.3194 52.7776C8.90641 52.6088 7.34792 52.6449 3.50181 50.2202C3.39903 49.2653 3.09681 47.6764 3.5233 46.9003C4.46617 46.0477 4.16021 46.3944 5.55807 46.1296Z"/><path fill="#FB8785" fill-opacity="0.98039216" d="M91.2099 130.077C92.8303 129.044 96.4003 127.375 98.0505 128.796C98.1861 130.863 94.9665 131.514 93.3679 131.495C93.2655 131.495 93.1632 131.489 93.0614 131.478C92.0557 130.662 92.1494 131.441 91.2099 130.077Z"/><path fill="#FB8785" fill-opacity="0.98823529" d="M123.109 11.9213C127.463 14.5649 128.624 15.169 132.986 18.3725C127.217 18.2795 130.564 16.9535 127.796 15.8754C125.394 14.9395 123.399 15.3532 123.109 11.9213Z"/><path fill="#FB8785" fill-opacity="0.98823529" d="M104.909 4.65103C107.003 5.02324 111.51 6.76993 113.612 7.65164L112.761 8.81026L112.259 8.86425C110.379 7.98326 105.646 6.22667 104.909 4.65103Z"/><path fill="#FB8785" fill-opacity="0.69411767" d="M27.0889 101.988L27.6242 101.808L27.5911 101.102C28.4501 101.134 31.2282 104.132 31.6649 104.99C31.2347 105.15 30.7911 105.26 30.5251 105.628C29.3346 104.709 27.9313 103.234 27.0889 101.988Z"/><path fill="#FB8785" d="M160 64.6162C157.496 67.1476 152.874 64.3381 150.086 63.4372C148.869 63.0438 145.834 62.04 144.968 61.3444C147.179 59.5364 153.756 60.2233 156.556 60.6479C157.674 61.791 158.551 62.2155 160 62.8049L160 64.6162Z"/></svg>